<svg width="14" height="16" viewBox="0 0 14 16" fill="none" xmlns="http://www.w3.org/2000/svg">
<path d="M13.9731 2.28184C13.9199 2.4794 13.7897 2.64758 13.6113 2.74899C13.4329 2.8504 13.2214 2.87673 13.0235 2.82214L8.56644 1.61047C8.54055 1.59633 8.50882 1.59633 8.48266 1.61047C8.45705 1.62875 8.4423 1.65868 8.44286 1.68999V11.7379C8.44397 13.0205 7.85699 14.2336 6.84836 15.0316C5.84003 15.8298 4.52048 16.1258 3.26584 15.8354C2.01092 15.545 0.957986 14.7002 0.40637 13.5411C-0.145261 12.3818 -0.134688 11.0355 0.43448 9.88477C1.00365 8.73431 2.06959 7.90561 3.32872 7.63429C4.58814 7.36303 5.90263 7.67918 6.8987 8.49272V1.70205C6.89313 1.19139 7.12859 0.707359 7.53466 0.395327C7.94073 0.0830604 8.47039 -0.0214014 8.9655 0.113257L13.4303 1.34075C13.6279 1.39367 13.796 1.52279 13.8979 1.69929C13.9995 1.87579 14.0268 2.08539 13.9731 2.28184Z" fill="#F3A93C"/>
</svg>
