<svg width="18" height="24" viewBox="0 0 18 24" fill="none" xmlns="http://www.w3.org/2000/svg">
<path opacity="0.2" fill-rule="evenodd" clip-rule="evenodd" d="M17.5235 21.0581C17.2939 21.1164 17.0643 21.2038 16.8061 21.2621C13.3335 22.1359 9.8612 23.0098 6.30268 23.6213C5.03992 23.8543 3.77722 24 2.48587 24C2.14156 24 1.79707 23.9417 1.45275 23.8836C1.05099 23.7962 0.993538 23.5341 0.993538 23.5341V23.5051V23.4468C1.33785 19.9807 2.28489 16.6894 3.69118 13.5146C4.83899 10.8933 6.24528 8.44655 8.08194 6.23299C9.17251 4.92235 10.3778 3.75713 11.8127 2.85426L11.8413 2.82521C11.87 2.79615 11.8988 2.73784 11.87 2.70879C11.3535 3.00014 10.8368 3.26224 10.349 3.58264C7.65133 5.33033 5.58509 7.66025 3.92067 10.3982C2.62932 12.5827 1.71089 15.0002 1.05089 17.476C0.878736 17.8547 0.763832 17.6507 0.735205 17.505C0.247369 16.0778 0.0464069 14.6215 0.189896 13.1361C0.620281 7.92242 3.34676 4.25247 7.82351 1.8641C8.77054 1.36897 9.77486 0.961227 10.7794 0.669858C12.4725 0.145685 14.4241 0.0290745 15.4572 0C15.7154 0 15.8589 0.233038 15.7154 0.436815C15.1701 1.28138 14.7397 2.91267 14.7109 2.91267C14.5099 3.49515 14.3952 4.19429 14.2517 4.83508C14.223 4.89339 14.223 5.0098 14.1942 5.06811C13.9072 6.26235 10.6931 7.36901 10.6931 7.36901L13.7064 7.19428C13.5054 7.95152 13.2472 8.67968 13.0176 9.29139C13.0176 9.32044 13.0176 9.32044 12.989 9.3497C12.989 9.37875 12.9604 9.43706 12.9315 9.46612C11.8984 12.0293 10.7218 13.3983 10.6071 13.5147C9.57394 14.8546 8.34004 15.9906 6.93374 16.9808C5.90062 17.709 4.78141 18.3498 3.71964 19.0196C3.63357 19.0779 3.57611 19.107 3.54749 19.1653C3.51886 19.2236 3.49003 19.2527 3.46141 19.311L1.42376 23.2139L3.77708 22.9808C8.39784 22.7766 12.9609 21.8445 17.5238 21.0582L17.5235 21.0581Z" fill="black"/>
</svg>
