<svg width="21" height="24" viewBox="0 0 21 24" fill="none" xmlns="http://www.w3.org/2000/svg">
<g opacity="0.2">
<path d="M11.5582 9.35438C11.7755 9.27764 11.9874 9.18373 12.1839 9.09416C12.2259 9.075 12.267 9.05615 12.3075 9.03761C12.4624 8.96654 12.607 8.90019 12.753 8.84003C13.5364 8.51746 14.2964 8.19503 15.0536 7.87379C15.3143 7.76707 15.5734 7.64931 15.8224 7.53614L15.8267 7.53422C16.0805 7.41887 16.324 7.30827 16.5659 7.20928C17.0182 7.02832 17.4757 6.83174 17.9237 6.63929C18.2603 6.49464 18.5916 6.35233 18.9111 6.22073C19.2723 6.0761 19.6231 5.91637 19.9684 5.7591C20.071 5.71236 20.1732 5.66583 20.275 5.61998C20.3284 5.59946 20.3538 5.61169 20.3643 5.61806C20.3761 5.62529 20.4113 5.65315 20.4295 5.73315V5.80346V5.82278V5.82495C20.4295 10.1826 20.4295 14.5221 20.4982 18.7931C20.4971 18.8707 20.452 18.9506 20.3476 18.9947C19.726 19.248 19.1058 19.5235 18.4939 19.7955L18.4906 19.7969L18.4905 19.7969L18.4769 19.803C18.4764 19.8032 18.4759 19.8035 18.4754 19.8037C17.5828 20.1927 16.7128 20.5591 15.8394 20.9269L15.8393 20.9268L15.8304 20.9308C15.6039 21.0314 15.3778 21.1335 15.1515 21.2358C14.7482 21.4179 14.3441 21.6005 13.9352 21.7758C13.5847 21.9144 13.2425 22.0683 12.9151 22.2156C12.8244 22.2564 12.7348 22.2967 12.6465 22.336C12.2308 22.5211 11.8332 22.6894 11.4253 22.8183C10.9104 22.9764 10.3853 23 9.81354 22.9365C9.23407 22.8722 8.70369 22.7444 8.1741 22.5325L8.17049 22.5311C7.69688 22.3458 7.39863 22.1225 7.2635 21.747L7.25846 21.733L7.25259 21.7193C7.21364 21.6285 7.20117 21.5588 7.20117 21.4567C7.20117 20.0267 7.20371 18.5931 7.20626 17.1582C7.21135 14.2896 7.21644 11.4155 7.20126 8.55298L7.71532 8.88834C8.33793 9.29451 8.97985 9.42152 9.56456 9.515L9.56456 9.51501L9.5674 9.51545C10.2276 9.61712 10.8889 9.59496 11.5582 9.35438ZM11.5582 9.35438C11.5577 9.35455 11.5573 9.35472 11.5568 9.35489L11.3904 8.88338M11.5582 9.35438C11.5587 9.3542 11.5592 9.35402 11.5597 9.35384L11.3904 8.88338M11.3904 8.88338C10.8157 9.09022 10.2411 9.11331 9.6435 9.02127L16.3784 6.74577C16.1255 6.84918 15.8727 6.9641 15.6198 7.07901C15.367 7.19393 15.1141 7.30886 14.8612 7.41228C14.1027 7.73408 13.3441 8.05589 12.5626 8.37769C12.4066 8.44198 12.2506 8.51358 12.0945 8.58518C11.8598 8.69287 11.6251 8.80057 11.3904 8.88338ZM16.3094 3.41289C16.1067 3.48889 15.9109 3.57888 15.7183 3.66743C15.5615 3.73953 15.4068 3.81068 15.252 3.87257C14.7138 4.08458 14.1873 4.31969 13.6641 4.55332C13.4498 4.64901 13.2361 4.74446 13.0223 4.83798C12.5206 5.04319 12.0188 5.27115 11.5171 5.49908L16.3094 3.41289ZM7.80395 8.00484L7.79807 8.00726L7.23795 8.23798C7.27138 8.11551 7.32509 8.02078 7.38849 7.94253C7.5047 7.7991 7.68065 7.67821 7.92015 7.56835C8.21343 7.43509 8.49954 7.31598 8.79655 7.19232C9.01381 7.10187 9.2369 7.00899 9.4729 6.90637C9.74562 6.79068 10.0184 6.67669 10.2908 6.56289C10.7648 6.36483 11.2375 6.16736 11.7056 5.96258L11.7056 5.96262L11.712 5.95971L11.7239 5.95431L11.5237 5.51358L11.7239 5.95431C12.2272 5.72566 12.7202 5.50175 13.2116 5.30076L13.2117 5.3009L13.2227 5.29606C13.4441 5.19922 13.6622 5.10183 13.8788 5.0051C14.3977 4.7734 14.9081 4.54547 15.4353 4.33776L15.4376 4.33684C15.6049 4.26994 15.7716 4.19329 15.9267 4.12193C15.9449 4.11359 15.9629 4.10532 15.9807 4.09715C16.1505 4.01918 16.3096 3.94756 16.4699 3.88674C16.4704 3.88667 16.4711 3.8866 16.4719 3.88655C16.4749 3.88637 16.4797 3.88644 16.4863 3.88762C16.5005 3.89011 16.5181 3.8968 16.5351 3.90842C16.5605 3.92588 16.5667 3.93997 16.5679 3.94404L7.80395 8.00484Z" fill="black" stroke="black"/>
<path d="M3.28157 6.49309C3.57891 6.57386 4.69088 6.78644 6.03973 6.33438C5.44677 6.83079 5.09528 7.52557 5.09528 8.40061V20.0424C4.9941 20.0479 4.89672 20.0569 4.8102 20.0649C4.78815 20.0669 4.76682 20.0689 4.7463 20.0707C4.58913 20.0848 4.46425 20.0926 4.34806 20.0847C3.3599 19.9946 2.51879 19.8197 1.83393 19.2922C1.61116 19.1166 1.49805 18.9083 1.49805 18.6524V5.41245C1.49805 5.25168 1.54038 5.15051 1.6 5.07057C1.66698 4.98075 1.77684 4.89049 1.95115 4.79334C2.33838 4.58393 2.75431 4.41353 3.19836 4.23161C3.35304 4.16825 3.51112 4.10348 3.67259 4.03518C4.18138 3.82705 4.66812 3.61845 5.17822 3.38657C5.34032 3.31564 5.50239 3.24412 5.66449 3.17258C6.24568 2.91611 6.8271 2.65954 7.41042 2.42971L7.41043 2.42974L7.41579 2.42755C7.73493 2.29752 8.04671 2.15632 8.34846 2.01966L8.35286 2.01767C8.65886 1.87909 8.95472 1.74517 9.25469 1.62297L9.25535 1.6227C9.4216 1.5547 9.57781 1.48779 9.7284 1.4233C10.0678 1.27793 10.3787 1.14478 10.7117 1.03877L10.7257 1.03432L10.7346 1.03088C10.7384 1.0309 10.75 1.03191 10.7683 1.04287C10.7942 1.05845 10.8182 1.08654 10.8262 1.132L10.8261 1.13202L10.8283 1.14323C10.8625 1.31414 10.8647 1.49565 10.859 1.7223C10.8583 1.75174 10.8574 1.78233 10.8565 1.81391C10.8554 1.85034 10.8543 1.88809 10.8533 1.92691C10.7936 1.89876 10.7368 1.86909 10.6824 1.83657C10.5182 1.73516 10.3427 1.68317 10.1607 1.68317C9.98572 1.68317 9.8359 1.73133 9.72118 1.78032C9.33759 1.94304 8.9605 2.11127 8.58827 2.27733L8.58643 2.27815C8.21417 2.44422 7.84673 2.60813 7.47438 2.76618C7.03073 2.9414 6.60024 3.12763 6.17988 3.31066C6.14537 3.32569 6.11094 3.34069 6.07658 3.35566C5.68821 3.52485 5.30858 3.69024 4.92459 3.84589L4.92459 3.84589L4.92313 3.84648C4.66381 3.95255 4.41138 4.06411 4.16622 4.17245L4.1633 4.17374C3.91521 4.28338 3.67446 4.38974 3.42912 4.49009L3.42217 4.49294L3.4153 4.49599C3.20589 4.58908 3.00258 4.68202 2.80197 4.77372L2.8014 4.77398C2.63198 4.85143 2.46446 4.92801 2.29412 5.00436C2.28771 5.00505 2.28118 5.00586 2.27456 5.00681C2.1961 5.01807 2.06047 5.05517 1.94851 5.17901C1.83418 5.30548 1.80828 5.45146 1.80828 5.5506C1.80828 5.77087 1.92954 5.91635 2.01656 5.98899C2.07546 6.03815 2.14072 6.07204 2.16663 6.08485C2.54131 6.29592 2.93433 6.4006 3.26169 6.48779L3.28157 6.49309ZM11.3434 2.12107C11.3452 2.1217 11.3453 2.12184 11.3436 2.12114L11.3434 2.12107Z" fill="black" stroke="black"/>
</g>
</svg>
