<svg width="20" height="21" viewBox="0 0 15 16" fill="none" xmlns="http://www.w3.org/2000/svg">
<path d="M10.1281 4.42929C10.1047 4.41861 10.0814 4.4078 10.0581 4.39682C10.0543 4.39849 10.0504 4.40019 10.0464 4.40188L10.0408 4.38863C10.0036 4.37096 9.9665 4.35288 9.92935 4.3343L9.97684 4.23937L10.1281 4.42929ZM10.1281 4.42929C9.97732 4.49177 9.82835 4.55947 9.68827 4.62314L9.68411 4.62503C9.53081 4.6947 9.38785 4.7596 9.24651 4.81741L9.24649 4.81738L9.24052 4.81991C8.78497 5.01317 8.33217 5.20525 7.86605 5.39719L7.86597 5.39723C7.76225 5.43996 7.65708 5.48824 7.56278 5.53152C7.54029 5.54184 7.51841 5.55189 7.49732 5.5615C7.38164 5.61423 7.28151 5.65799 7.18662 5.69148L7.18662 5.69147L7.18366 5.69253C7.09602 5.72408 7.00739 5.74636 6.91649 5.76002C6.97517 5.7349 7.03401 5.70973 7.09293 5.68453C7.49133 5.51413 7.8933 5.3422 8.27374 5.17141C8.74375 4.96371 9.20477 4.76491 9.68025 4.55987C9.80171 4.5075 9.92411 4.45472 10.0478 4.40128L10.0428 4.38959L10.1281 4.42929ZM13.5773 4.24579V4.2085L13.5717 4.17162C13.532 3.90673 13.3903 3.66454 13.1553 3.52088C12.9178 3.37573 12.632 3.36099 12.3765 3.46625L12.3691 3.46931L12.3618 3.47259C12.2913 3.50432 12.2233 3.53525 12.1571 3.5654C11.9534 3.65814 11.7657 3.7436 11.5674 3.82295L11.5674 3.82292L11.5628 3.82483C11.4581 3.86794 11.3577 3.91011 11.26 3.95163V3.19746C11.26 2.89121 11.0889 2.65244 10.8929 2.51794C10.6982 2.38431 10.4228 2.31385 10.1467 2.40589L10.1379 2.40881L10.1293 2.41205C10.0004 2.46035 9.87906 2.51542 9.7738 2.56374C9.76313 2.56863 9.75266 2.57344 9.74236 2.57818C9.64656 2.6222 9.56581 2.65931 9.48574 2.69136C9.15223 2.82281 8.82037 2.97099 8.50283 3.11278C8.37855 3.16827 8.25647 3.22279 8.13733 3.27493C7.82926 3.40111 7.52272 3.54037 7.22624 3.67507L7.21829 3.67868C6.94335 3.79891 6.67283 3.91192 6.39467 4.02812C6.22953 4.09711 6.06169 4.16722 5.88864 4.24063L5.88863 4.24062L5.88449 4.24242C5.76956 4.2924 5.64286 4.34529 5.51292 4.39953C5.31941 4.4803 5.11874 4.56407 4.93914 4.64569L4.93914 4.64569L4.93768 4.64635C4.73619 4.7387 4.5078 4.87516 4.32988 5.09477C4.14326 5.32511 4.03906 5.61373 4.03906 5.95606L4.03907 5.95873C4.04824 7.67713 4.04518 9.40018 4.04212 11.1233C4.04059 11.985 4.03906 12.8468 4.03906 13.708C4.03906 13.8591 4.06194 14.0059 4.12874 14.1669C4.32659 14.7006 4.7585 14.9525 5.12747 15.0971C5.51679 15.2527 5.90536 15.3453 6.31839 15.3912L6.31841 15.3912C6.73909 15.4379 7.16966 15.425 7.61032 15.2894L7.61033 15.2894L7.61378 15.2883C7.90417 15.1966 8.17724 15.0801 8.43216 14.9666C8.49136 14.9402 8.54917 14.9142 8.60607 14.8886C8.80103 14.801 8.9853 14.7181 9.17796 14.642L9.18465 14.6394L9.19126 14.6366C9.44409 14.5282 9.70189 14.4118 9.95049 14.2995C10.0829 14.2397 10.2127 14.1811 10.3378 14.1255C10.8601 13.9056 11.3855 13.6843 11.9252 13.4491L11.9252 13.4491L11.9284 13.4476L11.9351 13.4447C12.3066 13.2796 12.6695 13.1183 13.0313 12.9709L13.0313 12.971L13.035 12.9694C13.3696 12.8299 13.6185 12.507 13.6185 12.1079H13.6186L13.6184 12.0999C13.5773 9.54233 13.5773 6.94253 13.5773 4.32422V4.31477V4.24579ZM9.94978 4.34395L9.98639 4.26167L10.0306 4.36493C9.99795 4.36149 9.97031 4.35308 9.94978 4.34395ZM10.0322 4.36509L9.98697 4.26035L10.0322 4.36509Z" stroke="black"/>
<path d="M10.1281 4.42929C10.1047 4.41861 10.0814 4.4078 10.0581 4.39682C10.0543 4.39849 10.0504 4.40019 10.0464 4.40188L10.0408 4.38863C10.0036 4.37096 9.9665 4.35288 9.92935 4.3343L9.97684 4.23937L10.1281 4.42929ZM10.1281 4.42929C9.97732 4.49177 9.82835 4.55947 9.68827 4.62314L9.68411 4.62503C9.53081 4.6947 9.38785 4.7596 9.24651 4.81741L9.24649 4.81738L9.24052 4.81991C8.78497 5.01317 8.33217 5.20525 7.86605 5.39719L7.86597 5.39723C7.76225 5.43996 7.65708 5.48824 7.56278 5.53152C7.54029 5.54184 7.51841 5.55189 7.49732 5.5615C7.38164 5.61423 7.28151 5.65799 7.18662 5.69148L7.18662 5.69147L7.18366 5.69253C7.09602 5.72408 7.00739 5.74636 6.91649 5.76002C6.97517 5.7349 7.03401 5.70973 7.09293 5.68453C7.49133 5.51413 7.8933 5.3422 8.27374 5.17141C8.74375 4.96371 9.20477 4.76491 9.68025 4.55987C9.80171 4.5075 9.92411 4.45472 10.0478 4.40128L10.0428 4.38959L10.1281 4.42929ZM13.5773 4.24579V4.2085L13.5717 4.17162C13.532 3.90673 13.3903 3.66454 13.1553 3.52088C12.9178 3.37573 12.632 3.36099 12.3765 3.46625L12.3691 3.46931L12.3618 3.47259C12.2913 3.50432 12.2233 3.53525 12.1571 3.5654C11.9534 3.65814 11.7657 3.7436 11.5674 3.82295L11.5674 3.82292L11.5628 3.82483C11.4581 3.86794 11.3577 3.91011 11.26 3.95163V3.19746C11.26 2.89121 11.0889 2.65244 10.8929 2.51794C10.6982 2.38431 10.4228 2.31385 10.1467 2.40589L10.1379 2.40881L10.1293 2.41205C10.0004 2.46035 9.87906 2.51542 9.7738 2.56374C9.76313 2.56863 9.75266 2.57344 9.74236 2.57818C9.64656 2.6222 9.56581 2.65931 9.48574 2.69136C9.15223 2.82281 8.82037 2.97099 8.50283 3.11278C8.37855 3.16827 8.25647 3.22279 8.13733 3.27493C7.82926 3.40111 7.52272 3.54037 7.22624 3.67507L7.21829 3.67868C6.94335 3.79891 6.67283 3.91192 6.39467 4.02812C6.22953 4.09711 6.06169 4.16722 5.88864 4.24063L5.88863 4.24062L5.88449 4.24242C5.76956 4.2924 5.64286 4.34529 5.51292 4.39953C5.31941 4.4803 5.11874 4.56407 4.93914 4.64569L4.93914 4.64569L4.93768 4.64635C4.73619 4.7387 4.5078 4.87516 4.32988 5.09477C4.14326 5.32511 4.03906 5.61373 4.03906 5.95606L4.03907 5.95873C4.04824 7.67713 4.04518 9.40018 4.04212 11.1233C4.04059 11.985 4.03906 12.8468 4.03906 13.708C4.03906 13.8591 4.06194 14.0059 4.12874 14.1669C4.32659 14.7006 4.7585 14.9525 5.12747 15.0971C5.51679 15.2527 5.90536 15.3453 6.31839 15.3912L6.31841 15.3912C6.73909 15.4379 7.16966 15.425 7.61032 15.2894L7.61033 15.2894L7.61378 15.2883C7.90417 15.1966 8.17724 15.0801 8.43216 14.9666C8.49136 14.9402 8.54917 14.9142 8.60607 14.8886C8.80103 14.801 8.9853 14.7181 9.17796 14.642L9.18465 14.6394L9.19126 14.6366C9.44409 14.5282 9.70189 14.4118 9.95049 14.2995C10.0829 14.2397 10.2127 14.1811 10.3378 14.1255C10.8601 13.9056 11.3855 13.6843 11.9252 13.4491L11.9252 13.4491L11.9284 13.4476L11.9351 13.4447C12.3066 13.2796 12.6695 13.1183 13.0313 12.9709L13.0313 12.971L13.035 12.9694C13.3696 12.8299 13.6185 12.507 13.6185 12.1079H13.6186L13.6184 12.0999C13.5773 9.54233 13.5773 6.94253 13.5773 4.32422V4.31477V4.24579ZM9.94978 4.34395L9.98639 4.26167L10.0306 4.36493C9.99795 4.36149 9.97031 4.35308 9.94978 4.34395ZM10.0322 4.36509L9.98697 4.26035L10.0322 4.36509Z" stroke="black" stroke-opacity="0.2"/>
<path d="M4.05602 3.8119C3.90067 3.87662 3.75089 3.92074 3.61104 3.94998C3.66561 3.92656 3.71998 3.90365 3.77468 3.88128C4.01491 3.78388 4.25178 3.68068 4.4829 3.57999C4.50402 3.57079 4.52509 3.56161 4.54611 3.55246C4.7997 3.44204 5.04768 3.33486 5.30077 3.23498L5.30083 3.23513L5.31251 3.23018C5.54431 3.13184 5.77193 3.03029 5.99472 2.9309L5.99681 2.92997C6.19905 2.83974 6.39737 2.75128 6.59727 2.66566C6.61584 2.67553 6.63444 2.68504 6.65299 2.6942C6.63858 2.70063 6.62417 2.70707 6.60976 2.71351L6.58985 2.72235C6.22398 2.88493 5.86142 3.04603 5.4859 3.2069L5.48589 3.20687L5.481 3.20903C5.01505 3.41457 4.53797 3.61903 4.0626 3.80921L4.06258 3.80916L4.05602 3.8119ZM8.18666 2.0356C8.06858 2.08532 7.9502 2.13517 7.83159 2.18528C7.82809 2.11776 7.83005 2.04607 7.83265 1.95108C7.83322 1.93048 7.83381 1.90878 7.83439 1.8858C7.83789 1.74581 7.84005 1.56137 7.80162 1.36615C7.70811 0.858083 7.18334 0.51996 6.69219 0.69689C6.45714 0.77254 6.21784 0.874958 6.00307 0.966884C5.92121 1.00192 5.8429 1.03544 5.76975 1.06537C5.57466 1.14486 5.3846 1.23093 5.2045 1.31249L5.20064 1.31424C5.01734 1.39725 4.8441 1.47565 4.66912 1.54702C4.30344 1.69118 3.93588 1.85341 3.58591 2.00787C3.49015 2.05013 3.39571 2.09182 3.30299 2.13239L3.30297 2.13234L3.29647 2.13529C2.99954 2.2703 2.71587 2.39189 2.4176 2.51389L2.41759 2.51385L2.41205 2.5162C2.33428 2.54911 2.25159 2.58295 2.16591 2.61802C1.88907 2.73133 1.58103 2.85742 1.30671 3.00594L1.3067 3.00591L1.30185 3.0086C1.14656 3.09491 0.972079 3.21571 0.837076 3.39673C0.694405 3.58804 0.617188 3.81789 0.617188 4.08018V12.0253C0.617188 12.4675 0.83447 12.8104 1.1255 13.0391L1.12549 13.0391L1.12902 13.0418C1.73002 13.5054 2.43121 13.6249 3.05825 13.6818L3.05825 13.6819L3.06794 13.6826C3.20794 13.6926 3.33934 13.682 3.43762 13.6733C3.45369 13.6718 3.46884 13.6704 3.48322 13.6691C3.56709 13.6615 3.62461 13.6563 3.68281 13.6563H3.70196L3.72105 13.6548C3.76241 13.6516 3.83209 13.6463 3.89962 13.6309C3.97077 13.6147 4.10094 13.5747 4.21143 13.4568C4.32255 13.3383 4.3539 13.2049 4.3652 13.1311C4.37583 13.0617 4.37591 12.9911 4.37591 12.9494V5.87333C4.37591 5.52651 4.53124 5.28641 4.85463 5.11522L4.85463 5.11523L4.85582 5.11459C5.12697 4.97013 5.40015 4.85564 5.70017 4.72991C5.83332 4.67411 5.97176 4.61609 6.11766 4.55225L6.13066 4.54657C6.18586 4.52282 6.24092 4.49867 6.29563 4.47439L6.63693 4.32505L6.63491 4.32165C6.75273 4.26844 6.86749 4.21702 6.9817 4.16806C7.50532 3.94758 8.02968 3.72675 8.5818 3.49214L8.58319 3.49155C8.7783 3.40795 8.97653 3.32101 9.17246 3.23508L9.17334 3.23469C9.37026 3.14833 9.56487 3.06298 9.7557 2.98121L9.76922 2.97542L9.78237 2.96884C9.83689 2.94158 10.0075 2.85563 10.091 2.65528C10.1645 2.47891 10.1233 2.30741 10.1185 2.2876C10.1183 2.2867 10.1181 2.28612 10.1181 2.28586L10.112 2.2552L10.1021 2.22554C10.004 1.93128 9.79621 1.77779 9.61672 1.68812L9.51121 1.63542H9.39327H9.22778H9.14662L9.06962 1.66109C8.81569 1.74576 8.56508 1.86146 8.34745 1.96193C8.29151 1.98775 8.23774 2.01257 8.18666 2.0356ZM1.94946 4.13461C1.95307 4.13507 1.95622 4.13547 1.95857 4.13547L2.35447 3.95604C2.3856 4.01826 2.40344 4.08907 2.40344 4.16308C2.40344 4.21458 2.39359 4.29511 2.34952 4.37885C2.233 4.3437 2.11802 4.30234 2.00712 4.24469C1.99085 4.23622 1.97466 4.22741 1.95857 4.21821C1.93095 4.20445 1.90344 4.1906 1.90344 4.16308C1.90344 4.12876 1.9319 4.13238 1.94946 4.13461Z" stroke="black"/>
<path d="M4.05602 3.8119C3.90067 3.87662 3.75089 3.92074 3.61104 3.94998C3.66561 3.92656 3.71998 3.90365 3.77468 3.88128C4.01491 3.78388 4.25178 3.68068 4.4829 3.57999C4.50402 3.57079 4.52509 3.56161 4.54611 3.55246C4.7997 3.44204 5.04768 3.33486 5.30077 3.23498L5.30083 3.23513L5.31251 3.23018C5.54431 3.13184 5.77193 3.03029 5.99472 2.9309L5.99681 2.92997C6.19905 2.83974 6.39737 2.75128 6.59727 2.66566C6.61584 2.67553 6.63444 2.68504 6.65299 2.6942C6.63858 2.70063 6.62417 2.70707 6.60976 2.71351L6.58985 2.72235C6.22398 2.88493 5.86142 3.04603 5.4859 3.2069L5.48589 3.20687L5.481 3.20903C5.01505 3.41457 4.53797 3.61903 4.0626 3.80921L4.06258 3.80916L4.05602 3.8119ZM8.18666 2.0356C8.06858 2.08532 7.9502 2.13517 7.83159 2.18528C7.82809 2.11776 7.83005 2.04607 7.83265 1.95108C7.83322 1.93048 7.83381 1.90878 7.83439 1.8858C7.83789 1.74581 7.84005 1.56137 7.80162 1.36615C7.70811 0.858083 7.18334 0.51996 6.69219 0.69689C6.45714 0.77254 6.21784 0.874958 6.00307 0.966884C5.92121 1.00192 5.8429 1.03544 5.76975 1.06537C5.57466 1.14486 5.3846 1.23093 5.2045 1.31249L5.20064 1.31424C5.01734 1.39725 4.8441 1.47565 4.66912 1.54702C4.30344 1.69118 3.93588 1.85341 3.58591 2.00787C3.49015 2.05013 3.39571 2.09182 3.30299 2.13239L3.30297 2.13234L3.29647 2.13529C2.99954 2.2703 2.71587 2.39189 2.4176 2.51389L2.41759 2.51385L2.41205 2.5162C2.33428 2.54911 2.25159 2.58295 2.16591 2.61802C1.88907 2.73133 1.58103 2.85742 1.30671 3.00594L1.3067 3.00591L1.30185 3.0086C1.14656 3.09491 0.972079 3.21571 0.837076 3.39673C0.694405 3.58804 0.617188 3.81789 0.617188 4.08018V12.0253C0.617188 12.4675 0.83447 12.8104 1.1255 13.0391L1.12549 13.0391L1.12902 13.0418C1.73002 13.5054 2.43121 13.6249 3.05825 13.6818L3.05825 13.6819L3.06794 13.6826C3.20794 13.6926 3.33934 13.682 3.43762 13.6733C3.45369 13.6718 3.46884 13.6704 3.48322 13.6691C3.56709 13.6615 3.62461 13.6563 3.68281 13.6563H3.70196L3.72105 13.6548C3.76241 13.6516 3.83209 13.6463 3.89962 13.6309C3.97077 13.6147 4.10094 13.5747 4.21143 13.4568C4.32255 13.3383 4.3539 13.2049 4.3652 13.1311C4.37583 13.0617 4.37591 12.9911 4.37591 12.9494V5.87333C4.37591 5.52651 4.53124 5.28641 4.85463 5.11522L4.85463 5.11523L4.85582 5.11459C5.12697 4.97013 5.40015 4.85564 5.70017 4.72991C5.83332 4.67411 5.97176 4.61609 6.11766 4.55225L6.13066 4.54657C6.18586 4.52282 6.24092 4.49867 6.29563 4.47439L6.63693 4.32505L6.63491 4.32165C6.75273 4.26844 6.86749 4.21702 6.9817 4.16806C7.50532 3.94758 8.02968 3.72675 8.5818 3.49214L8.58319 3.49155C8.7783 3.40795 8.97653 3.32101 9.17246 3.23508L9.17334 3.23469C9.37026 3.14833 9.56487 3.06298 9.7557 2.98121L9.76922 2.97542L9.78237 2.96884C9.83689 2.94158 10.0075 2.85563 10.091 2.65528C10.1645 2.47891 10.1233 2.30741 10.1185 2.2876C10.1183 2.2867 10.1181 2.28612 10.1181 2.28586L10.112 2.2552L10.1021 2.22554C10.004 1.93128 9.79621 1.77779 9.61672 1.68812L9.51121 1.63542H9.39327H9.22778H9.14662L9.06962 1.66109C8.81569 1.74576 8.56508 1.86146 8.34745 1.96193C8.29151 1.98775 8.23774 2.01257 8.18666 2.0356ZM1.94946 4.13461C1.95307 4.13507 1.95622 4.13547 1.95857 4.13547L2.35447 3.95604C2.3856 4.01826 2.40344 4.08907 2.40344 4.16308C2.40344 4.21458 2.39359 4.29511 2.34952 4.37885C2.233 4.3437 2.11802 4.30234 2.00712 4.24469C1.99085 4.23622 1.97466 4.22741 1.95857 4.21821C1.93095 4.20445 1.90344 4.1906 1.90344 4.16308C1.90344 4.12876 1.9319 4.13238 1.94946 4.13461Z" stroke="black" stroke-opacity="0.2"/>
</svg>
