<svg width="13" height="13" viewBox="0 0 13 13" fill="none" xmlns="http://www.w3.org/2000/svg">
<path fill-rule="evenodd" clip-rule="evenodd" d="M11.8516 1.11372C11.8573 1.11942 11.8631 1.1252 11.8689 1.13107C11.8748 1.13694 11.8806 1.14273 11.8863 1.14842C11.9925 1.25459 12.069 1.33113 12.1334 1.40319C13.2889 2.69688 13.2889 4.65191 12.1334 5.94559C12.069 6.01765 11.9925 6.09419 11.8863 6.20035L11.7276 6.35901C11.4155 6.67115 10.9094 6.67115 10.5973 6.35901C10.2851 6.04686 10.2851 5.54078 10.5973 5.22864L10.7386 5.08735C10.8693 4.95664 10.9109 4.91455 10.9411 4.88071C11.5549 4.19358 11.5549 3.1552 10.9411 2.46808C10.9109 2.43424 10.8693 2.39214 10.7386 2.26144C10.6079 2.13073 10.5658 2.08909 10.5319 2.05887C9.8448 1.44515 8.80642 1.44515 8.11929 2.05887C8.08545 2.08909 8.04336 2.13073 7.91265 2.26144L6.21711 3.95698C6.0864 4.08769 6.04476 4.12978 6.01454 4.16362C5.40082 4.85075 5.40082 5.88913 6.01454 6.57625C6.04476 6.61009 6.0864 6.65218 6.21711 6.78289C6.52925 7.09503 6.52925 7.60111 6.21711 7.91326C5.90497 8.2254 5.39888 8.2254 5.08674 7.91326L5.06938 7.8959C4.9632 7.78974 4.88664 7.71319 4.82228 7.64114C3.6668 6.34745 3.6668 4.39242 4.82228 3.09874C4.88664 3.02668 4.9632 2.95014 5.06939 2.84397L6.78229 1.13107C6.78816 1.1252 6.79394 1.11942 6.79964 1.11372C6.90581 1.00753 6.98235 0.930973 7.05441 0.866614C8.34809 -0.288871 10.3031 -0.288871 11.5968 0.866614C11.6689 0.930973 11.7454 1.00753 11.8516 1.11372Z" fill="black"/>
<path fill-rule="evenodd" clip-rule="evenodd" d="M1.14842 11.8869C1.14273 11.8812 1.13694 11.8754 1.13107 11.8695C1.1252 11.8636 1.11942 11.8579 1.11372 11.8522C1.00753 11.746 0.930973 11.6695 0.866614 11.5974C-0.288871 10.3037 -0.288871 8.34869 0.866614 7.055C0.93097 6.98295 1.00753 6.9064 1.11371 6.80024L1.27237 6.64159C1.58451 6.32945 2.09059 6.32945 2.40273 6.64159C2.71487 6.95373 2.71487 7.45981 2.40273 7.77195L2.26144 7.91325C2.13073 8.04395 2.08909 8.08605 2.05887 8.11989C1.44515 8.80701 1.44515 9.8454 2.05887 10.5325C2.08909 10.5664 2.13073 10.6084 2.26144 10.7392C2.39214 10.8699 2.43424 10.9115 2.46808 10.9417C3.1552 11.5554 4.19358 11.5554 4.88071 10.9417C4.91455 10.9115 4.95664 10.8699 5.08735 10.7392L6.5631 9.2634C6.91093 8.91557 7.02049 8.80282 7.09222 8.70556C7.5636 8.06647 7.5636 7.19484 7.09222 6.55575C7.02049 6.45849 6.91093 6.34574 6.5631 5.99791C6.25096 5.68577 6.25096 5.17969 6.5631 4.86754C6.87524 4.5554 7.38132 4.5554 7.69346 4.86754C7.70908 4.88316 7.72447 4.89854 7.73963 4.91369C8.02212 5.19604 8.22597 5.39977 8.37872 5.60687C9.2662 6.81012 9.2662 8.4512 8.37872 9.65445C8.22597 9.86154 8.02212 10.0653 7.73963 10.3476C7.72447 10.3628 7.70908 10.3781 7.69346 10.3938L6.21771 11.8695C6.21184 11.8754 6.20606 11.8812 6.20036 11.8869C6.09419 11.9931 6.01765 12.0696 5.94559 12.134C4.65191 13.2895 2.69688 13.2895 1.40319 12.134C1.33113 12.0696 1.25459 11.9931 1.14842 11.8869Z" fill="black"/>
</svg>
