<svg width="18" height="22" viewBox="0 0 18 22" fill="none" xmlns="http://www.w3.org/2000/svg">
<path opacity="0.2" d="M2.88077 22H14.961C16.1101 22 17.0234 21.0979 17.0234 19.963V5.64572V5.58746V5.5292C17.0234 5.03452 16.6403 4.65614 16.1395 4.65614H15.5502V0.873059C15.5502 0.378381 15.1671 0 14.6663 0L3.76458 0.000202987C1.96728 0.000202987 0.523438 1.42617 0.523438 3.20133V19.6721C0.523438 20.9523 1.58414 21.9999 2.88061 21.9999L2.88077 22ZM12.8985 17.5477C12.8985 18.0423 12.5154 18.4207 12.0146 18.4207H5.53247C5.03161 18.4207 4.6485 18.0424 4.6485 17.5477V12.8915C4.6485 12.3968 5.0316 12.0185 5.53247 12.0185H12.0146C12.5154 12.0185 12.8985 12.3968 12.8985 12.8915V17.5477ZM12.0148 10.0689H5.53269C5.03183 10.0689 4.64871 9.69054 4.64871 9.19584C4.64871 8.70116 5.03181 8.32278 5.53269 8.32278H12.0148C12.5156 8.32278 12.8987 8.70115 12.8987 9.19584C12.8987 9.69072 12.5158 10.0689 12.015 10.0689H12.0148ZM3.76485 1.74623H13.7826V4.65626H3.76485C2.93985 4.65626 2.29165 4.01605 2.29165 3.20124C2.29165 2.38623 2.93985 1.74623 3.76485 1.74623Z" fill="black"/>
</svg>
