<svg width="12" height="11" viewBox="0 0 12 11" fill="none" xmlns="http://www.w3.org/2000/svg">
<path fill-rule="evenodd" clip-rule="evenodd" d="M0.824937 4.73543C4.04616 3.18307 6.19414 2.15967 7.26889 1.66521C10.3375 0.253426 10.9751 0.00818437 11.3907 8.63431e-05C11.4822 -0.00169473 11.6865 0.0233625 11.8189 0.142186C11.9307 0.242518 11.9615 0.378053 11.9762 0.473179C11.9909 0.568305 12.0092 0.785005 11.9947 0.954328C11.8284 2.88695 11.1088 7.57691 10.7428 9.74148C10.5879 10.6574 10.2829 10.9645 9.98764 10.9945C9.34596 11.0599 8.8587 10.5255 8.2372 10.0749C7.26468 9.36971 6.71527 8.93076 5.77127 8.24267C4.68032 7.44746 5.38754 7.0104 6.00927 6.29612C6.17198 6.10919 8.99923 3.26471 9.05395 3.00668C9.06079 2.9744 9.06715 2.85411 9.00254 2.79059C8.93793 2.72707 8.84257 2.74879 8.77376 2.76606C8.67622 2.79055 7.1226 3.9264 4.11292 6.1736C3.67193 6.50854 3.2725 6.67174 2.91462 6.66319C2.52009 6.65376 1.76117 6.41644 1.19699 6.21359C0.504996 5.96478 -0.0449838 5.83324 0.00290711 5.41069C0.0278516 5.1906 0.301862 4.96551 0.824937 4.73543Z" fill="black"/>
</svg>
