<svg width="18" height="18" viewBox="0 0 18 18" fill="none" xmlns="http://www.w3.org/2000/svg">
<g clip-path="url(#clip0_1_46885)">
<circle cx="9.16287" cy="5.2449" r="4.2449" stroke="black"/>
<path d="M1 14.6735V14.037C1 13.2033 1.25202 12.3798 1.84551 11.7943C2.41892 11.2286 3.25534 10.5469 4.26531 10.1429C6.22449 9.35923 9.16327 9.48985 9.16327 9.48985C9.16327 9.48985 12.4483 9.42764 13.9655 10.1429C14.618 10.4505 15.2704 10.9766 15.8022 11.4764C16.6294 12.2538 17 13.3736 17 14.5088V14.6735C17 15.7781 16.1046 16.6735 15 16.6735H3C1.89543 16.6735 1 15.7781 1 14.6735Z" stroke="black" stroke-linecap="round"/>
</g>
<defs>
<clipPath id="clip0_1_46885">
<rect width="18" height="18" fill="white"/>
</clipPath>
</defs>
</svg>
