<svg width="19" height="26" viewBox="0 0 19 26" fill="none" xmlns="http://www.w3.org/2000/svg">
<g opacity="0.2">
<path d="M2.55688 19.4552V0.75C2.55688 0.75 1.62178 1.40632 0.988128 2.39081C0.322165 3.42549 0.0935674 4.71652 0.0535698 4.97129C0.0488092 5.00161 0.046875 5.03153 0.046875 5.06225V20.6557C0.046875 20.6557 0.521908 20.0488 0.986903 19.8058C1.61465 19.4776 2.55688 19.4552 2.55688 19.4552Z" fill="black"/>
<path d="M2.62028 20.6557H18.9538V21.9684H2.95248L2.95248 22.9529H18.9538C18.9538 24.8654 18.9538 22.368 18.9538 24.5937C18.9538 24.9562 18.6728 25.25 18.3263 25.25H2.62028C2.5897 25.25 2.56017 25.2479 2.53012 25.242C2.22484 25.1818 0.44247 24.7532 0.44247 22.9529C0.44247 21.1525 2.22484 20.724 2.53012 20.6638C2.56017 20.6579 2.5897 20.6557 2.62028 20.6557Z" fill="black"/>
<path fill-rule="evenodd" clip-rule="evenodd" d="M3.57971 0.75V19.4552H18.9535V2.75C18.9535 1.64543 18.0581 0.75 16.9535 0.75C12.4956 0.75 8.03764 0.75 3.57971 0.75ZM8.91348 13.6004V6.933C8.91348 6.40202 9.48494 6.09082 9.90084 6.39532L14.4541 9.72902C14.811 9.9903 14.811 10.5431 14.4541 10.8044L9.90083 14.1381C9.48494 14.4426 8.91348 14.1314 8.91348 13.6004Z" fill="black"/>
</g>
</svg>
