<svg width="19" height="12" viewBox="0 0 19 12" fill="none" xmlns="http://www.w3.org/2000/svg">
<g opacity="0.5">
<path d="M0.119991 5.68313C0.290607 5.49 4.36104 0.954102 9.5 0.954102C14.639 0.954102 18.7096 5.49016 18.88 5.68313C19.04 5.8641 19.04 6.13584 18.88 6.31664C18.7094 6.50977 14.639 11.0457 9.5 11.0457C4.36104 11.0457 0.290407 6.50961 0.119991 6.31664C-0.039999 6.13581 -0.039999 5.86393 0.119991 5.68313ZM9.5 10.0896C13.4514 10.0896 16.8511 7.01008 17.8604 5.99962C16.8527 4.98851 13.4589 1.91 9.5 1.91C5.54858 1.91 2.14887 4.98951 1.13962 5.99997C2.14725 7.01108 5.54106 10.0896 9.5 10.0896Z" fill="black"/>
<path d="M12.8633 6.00005C12.8633 7.85432 11.3547 9.36289 9.50044 9.36289C7.64617 9.36289 6.1376 7.85432 6.1376 6.00005C6.1376 4.14578 7.64617 2.63721 9.50044 2.63721C11.3547 2.63721 12.8633 4.14578 12.8633 6.00005ZM7.09386 6.00005C7.09386 7.32692 8.17349 8.40673 9.50055 8.40673C10.8276 8.40673 11.9072 7.32696 11.9072 6.00005C11.9072 4.67313 10.8275 3.59336 9.50055 3.59336C8.17364 3.59336 7.09386 4.67313 7.09386 6.00005Z" fill="black"/>
</g>
</svg>
