<svg width="13" height="13" viewBox="0 0 13 13" fill="none" xmlns="http://www.w3.org/2000/svg">
<path fill-rule="evenodd" clip-rule="evenodd" d="M0 6.5C0 2.91575 2.91575 0 6.49999 0C10.0842 0 13 2.91575 13 6.5C13 10.0843 10.0842 13 6.49999 13C5.31499 13 4.15925 12.6793 3.15 12.0713L0.573499 12.8638C0.486999 12.8903 0.392 12.8678 0.32625 12.8045C0.2605 12.7413 0.23475 12.6473 0.25875 12.5593C0.259273 12.5574 0.264815 12.5371 0.274614 12.5013C0.358499 12.1943 0.754355 10.7459 0.984249 9.9405C0.33975 8.90975 0 7.72275 0 6.5ZM8.833 7.04927C9.0336 7.17868 9.30844 7.35599 9.63116 7.53278C9.69588 7.56815 9.73103 7.63994 9.71861 7.7119C9.55262 8.69538 8.96317 9.19117 7.96441 9.19117C7.79509 9.19117 7.61423 9.17702 7.4213 9.14854C5.7236 8.89728 4.39198 7.35054 3.87319 6.01986C3.40057 4.80739 4.39513 3.807 4.43763 3.76507C4.46212 3.74108 4.49326 3.72469 4.52701 3.71796C4.87806 3.64893 5.10773 3.66463 5.2097 3.76507C5.31133 3.86533 5.87315 4.85743 5.87315 5.09506C5.87315 5.32561 5.75893 5.52821 5.44181 5.85022C5.48746 6.11529 5.79846 6.50443 6.29276 6.91084C6.77692 7.30861 7.26406 7.58178 7.36813 7.59783C7.45821 7.57989 7.76588 7.24631 8.00149 6.89755C8.00779 6.88823 8.01513 6.87943 8.02336 6.87132C8.08877 6.80609 8.26071 6.72722 8.48758 6.83887C8.56874 6.87908 8.67945 6.95035 8.83268 7.04906L8.833 7.04927Z" fill="black"/>
</svg>
